{
  "accessors": [
    {
      "bufferView": 2,
      "componentType": 5126,
      "count": 168,
      "max": [
        1.6092212200164795,
        1.8761563301086426,
        1.9943499565124512
      ],
      "min": [
        -1.8221240043640137,
        -1.8041821718215942,
        -0.0935513973236084
      ],
      "type": "VEC3"
    },
    {
      "bufferView": 2,
      "byteOffset": 2016,
      "componentType": 5126,
      "count": 168,
      "max": [
        0.998005747795105,
        0.9986434578895569,
        0.453066349029541
      ],
      "min": [
        -0.9999011158943176,
        -0.9997301697731018,
        -0.35292837023735046
      ],
      "type": "VEC3"
    },
    {
      "bufferView": 3,
      "componentType": 5126,
      "count": 168,
      "max": [
        0.999972939491272,
        0.9999670386314392,
        0.07273447513580322,
        1.0
      ],
      "min": [
        -0.9999994039535522,
        -0.9999997615814209,
        -0.07433193176984787,
        -1.0
      ],
      "type": "VEC4"
    },
    {
      "bufferView": 1,
      "componentType": 5126,
      "count": 168,
      "max": [
        1.0,
        0.998491644859314
      ],
      "min": [
        0.0,
        0.0
      ],
      "type": "VEC2"
    },
    {
      "bufferView": 1,
      "byteOffset": 1344,
      "componentType": 5126,
      "count": 168,
      "max": [
        1.0,
        0.998491644859314
      ],
      "min": [
        0.0,
        0.0
      ],
      "type": "VEC2"
    },
    {
      "bufferView": 0,
      "componentType": 5125,
      "count": 450,
      "type": "SCALAR"
    },
    {
      "bufferView": 2,
      "byteOffset": 4032,
      "componentType": 5126,
      "count": 2339,
      "max": [
        10.012763977050781,
        6.478900909423828,
        1.2490577697753906
      ],
      "min": [
        -2.986945629119873,
        -6.25503396987915,
        -0.16564494371414185
      ],
      "type": "VEC3"
    },
    {
      "bufferView": 2,
      "byteOffset": 32100,
      "componentType": 5126,
      "count": 2339,
      "max": [
        0.9995152354240417,
        0.9992606043815613,
        0.3947242200374603
      ],
      "min": [
        -0.9998003244400024,
        -0.9980248808860779,
        -0.4053090214729309
      ],
      "type": "VEC3"
    },
    {
      "bufferView": 3,
      "byteOffset": 2688,
      "componentType": 5126,
      "count": 2339,
      "max": [
        0.9995753169059753,
        0.9999911785125732,
        0.18769541382789612,
        1.0
      ],
      "min": [
        -0.9999452233314514,
        -0.9999993443489075,
        -0.1968933641910553,
        1.0
      ],
      "type": "VEC4"
    },
    {
      "bufferView": 1,
      "byteOffset": 2688,
      "componentType": 5126,
      "count": 2339,
      "max": [
        0.9907512664794922,
        1.001387357711792
      ],
      "min": [
        0.0,
        0.0
      ],
      "type": "VEC2"
    },
    {
      "bufferView": 1,
      "byteOffset": 21400,
      "componentType": 5126,
      "count": 2339,
      "max": [
        0.9907512664794922,
        1.001387357711792
      ],
      "min": [
        0.0,
        0.0
      ],
      "type": "VEC2"
    },
    {
      "bufferView": 0,
      "byteOffset": 1800,
      "componentType": 5125,
      "count": 3459,
      "type": "SCALAR"
    }
  ],
  "asset": {
    "extras": {
      "author": "Georgeous (https://sketchfab.com/intice184)",
      "license": "SKETCHFAB Standard (https://sketchfab.com/licenses)",
      "source": "https://sketchfab.com/3d-models/grass-674d42354f6348a7a85fc06a7f004db5",
      "title": "grass"
    },
    "generator": "Sketchfab-16.68.0",
    "version": "2.0"
  },
  "bufferViews": [
    {
      "buffer": 0,
      "byteLength": 15636,
      "name": "floatBufferViews",
      "target": 34963
    },
    {
      "buffer": 0,
      "byteLength": 40112,
      "byteOffset": 15636,
      "byteStride": 8,
      "name": "floatBufferViews",
      "target": 34962
    },
    {
      "buffer": 0,
      "byteLength": 60168,
      "byteOffset": 55748,
      "byteStride": 12,
      "name": "floatBufferViews",
      "target": 34962
    },
    {
      "buffer": 0,
      "byteLength": 40112,
      "byteOffset": 115916,
      "byteStride": 16,
      "name": "floatBufferViews",
      "target": 34962
    }
  ],
  "buffers": [
    {
      "byteLength": 156028,
      "uri": "scene.bin"
    }
  ],
  "images": [
    {
      "uri": "textures/Grass_Reeds_baseColor.png"
    },
    {
      "uri": "textures/Grass_Reeds_normal.png"
    },
    {
      "uri": "textures/GrassBase_baseColor.png"
    },
    {
      "uri": "textures/GrassBase_normal.png"
    }
  ],
  "materials": [
    {
      "alphaCutoff": 0.37638209945020784,
      "alphaMode": "MASK",
      "doubleSided": true,
      "name": "Grass_Reeds",
      "normalTexture": {
        "index": 1
      },
      "pbrMetallicRoughness": {
        "baseColorTexture": {
          "index": 0
        },
        "metallicFactor": 0.0,
        "roughnessFactor": 0.8211145618000169
      }
    },
    {
      "alphaCutoff": 0.4007631261352415,
      "alphaMode": "MASK",
      "doubleSided": true,
      "name": "GrassBase",
      "normalTexture": {
        "index": 3
      },
      "pbrMetallicRoughness": {
        "baseColorTexture": {
          "index": 2
        },
        "metallicFactor": 0.0
      }
    }
  ],
  "meshes": [
    {
      "name": "Grass_Reeds_LOD0_Grass_Reeds_0",
      "primitives": [
        {
          "attributes": {
            "NORMAL": 1,
            "POSITION": 0,
            "TANGENT": 2,
            "TEXCOORD_0": 3,
            "TEXCOORD_1": 4
          },
          "indices": 5,
          "material": 0,
          "mode": 4
        }
      ]
    },
    {
      "name": "Grass_Reeds_LOD0_GrassBase_0",
      "primitives": [
        {
          "attributes": {
            "NORMAL": 7,
            "POSITION": 6,
            "TANGENT": 8,
            "TEXCOORD_0": 9,
            "TEXCOORD_1": 10
          },
          "indices": 11,
          "material": 1,
          "mode": 4
        }
      ]
    }
  ],
  "nodes": [
    {
      "children": [
        1
      ],
      "matrix": [
        -1.0,
        -2.832769343193999e-16,
        -6.290011496532519e-32,
        0.0,
        0.0,
        2.220446049250313e-16,
        -1.0,
        0.0,
        2.832769343193999e-16,
        -1.0,
        -2.220446049250313e-16,
        0.0,
        0.0,
        0.0,
        0.0,
        1.0
      ],
      "name": "Sketchfab_model"
    },
    {
      "children": [
        2
      ],
      "matrix": [
        0.009999999776482582,
        0.0,
        0.0,
        0.0,
        0.0,
        -0.009999999776482582,
        0.0,
        0.0,
        0.0,
        0.0,
        -0.009999999776482582,
        0.0,
        0.0,
        0.0,
        0.0,
        1.0
      ],
      "name": "grassExampleScene.fbx"
    },
    {
      "children": [
        3
      ],
      "name": "RootNode"
    },
    {
      "children": [
        4,
        5
      ],
      "matrix": [
        -1.629206793918314e-05,
        -99.99999999999868,
        0.0,
        0.0,
        99.99999999999868,
        -1.629206793918314e-05,
        0.0,
        0.0,
        0.0,
        0.0,
        100.0,
        0.0,
        0.0,
        403.5632629394531,
        0.0,
        1.0
      ],
      "name": "Grass_Reeds_LOD0"
    },
    {
      "mesh": 0,
      "name": "Grass_Reeds_LOD0_Grass_Reeds_0"
    },
    {
      "mesh": 1,
      "name": "Grass_Reeds_LOD0_GrassBase_0"
    }
  ],
  "samplers": [
    {
      "magFilter": 9729,
      "minFilter": 9987,
      "wrapS": 10497,
      "wrapT": 10497
    }
  ],
  "scene": 0,
  "scenes": [
    {
      "name": "Sketchfab_Scene",
      "nodes": [
        0
      ]
    }
  ],
  "textures": [
    {
      "sampler": 0,
      "source": 0
    },
    {
      "sampler": 0,
      "source": 1
    },
    {
      "sampler": 0,
      "source": 2
    },
    {
      "sampler": 0,
      "source": 3
    }
  ]
}
